# xmcd
#
# Track frame offsets: 
#        150
#        10076
#        18420
#        26604
#        38401
#        47279
#        56632
#        65427
#        76962
#        86614
#        97460
#        105637
#        117010
#        123333
#        130067
#        142294
#        149539
#
# Disc length: 2140 seconds
#
# Revision: 0
# Processed by: cddbd v1.5.2PL0 Copyright (c) Steve Scherf et al.
# Submitted via: ExactAudioCopy v1.3
#
DISCID=e3085a11
DTITLE=Tom Brumley And The Buckaroos - Steelin' The Show
DYEAR=2018
DGENRE=Instrumental
TTITLE0=Tom Cattin'
TTITLE1=Steel Guitar Rag
TTITLE2=Bud's Place
TTITLE3=The Neosho Waltz
TTITLE4=Steel Guitar Polka
TTITLE5=Seven Come Eleven
TTITLE6=Free And Easy
TTITLE7=Tom's Waltz
TTITLE8=Apple Jack
TTITLE9=The Waltz Of The Roses
TTITLE10=Pedal Patter
TTITLE11=Tracie's Waltz
TTITLE12=Runnin' Short
TTITLE13=Highland Fling
TTITLE14=Moonlight On The Desert
TTITLE15=March Of The McGregor
TTITLE16=Buck Owens And The Buckaroos - Together Again
EXTD=
EXTT0=
EXTT1=
EXTT2=
EXTT3=
EXTT4=
EXTT5=
EXTT6=
EXTT7=
EXTT8=
EXTT9=
EXTT10=
EXTT11=
EXTT12=
EXTT13=
EXTT14=
EXTT15=
EXTT16=
PLAYORDER=
